<svg width="225" height="150" viewBox="0 0 225 150" fill="none" xmlns="http://www.w3.org/2000/svg">
<path d="M96 118.128C88.4053 118.128 84.608 117.275 84.608 115.568L81.92 64.24L66.304 116.208C65.9627 117.232 63.0613 117.744 57.6 117.744C52.1387 117.744 49.3227 117.275 49.152 116.336L33.024 63.728L31.232 114.8C31.1467 116.08 29.5253 116.976 26.368 117.488C23.2107 117.915 20.5653 118.128 18.432 118.128C16.384 118.128 14.3787 118 12.416 117.744C8.32 117.147 6.31467 116.08 6.4 114.544L9.344 31.344C9.344 29.296 14.5493 28.272 24.96 28.272C28.032 28.272 31.7867 28.528 36.224 29.04C40.6613 29.4667 43.136 30.3627 43.648 31.728L57.984 72.048L70.528 31.6C71.296 29.3813 77.184 28.272 88.192 28.272C91.3493 28.272 95.104 28.528 99.456 29.04C103.893 29.4667 106.112 30.2773 106.112 31.472L109.824 115.44C109.824 116.379 108.16 117.061 104.832 117.488C101.504 117.915 98.56 118.128 96 118.128Z" fill="black"/>
<path d="M164.569 32.624C165.678 29.6373 171.14 28.144 180.953 28.144C183.428 28.144 186.329 28.3147 189.657 28.656C193.07 28.9973 194.649 29.424 194.393 29.936L167.769 83.44V114.672C167.769 116.123 165.422 117.147 160.729 117.744C158.34 118.085 155.993 118.256 153.689 118.256C151.385 118.256 149.081 118.128 146.777 117.872C142.084 117.275 139.737 116.208 139.737 114.672V84.208L112.217 30.192C111.876 29.68 113.625 29.2107 117.465 28.784C121.305 28.272 124.548 28.016 127.193 28.016C137.689 28.016 143.449 29.552 144.473 32.624L153.817 58.736L164.569 32.624Z" fill="#EC4899"/>
<path d="M48.4656 66.6059L43.3947 66L36.4881 64.9065C35.8371 64.8034 35.216 64.5607 34.6676 64.1951L33.7592 63.5895C31.774 62.266 29.0736 63.137 28.2359 65.371C28.0799 65.787 28 66.2275 28 66.6717V66.9656C28 69.0413 29.2152 70.9247 31.1064 71.7803C31.7907 72.0899 32.5333 72.25 33.2844 72.25H39.25H41.3024C42.6848 72.25 44.0548 71.9887 45.3402 71.4799L47.5304 70.613C47.924 70.4572 48.2684 70.1986 48.5278 69.8641L49.3726 68.7749C49.9315 68.0543 49.6304 66.9983 48.7755 66.6809C48.6755 66.6438 48.5715 66.6186 48.4656 66.6059Z" fill="#D9D9D9" stroke="black" stroke-width="0.5"/>
<path d="M29.107 99.0144C30.1441 98.7331 30.7857 98.4493 31.427 97.7034C31.644 97.451 31.8087 97.1008 31.9291 96.7657C32.1689 96.0984 32.3181 95.4003 32.5087 94.7173C32.6974 94.0414 32.9137 93.1543 32.9737 92.4594C33.1514 90.401 32.6773 89.2392 32.2004 87.2153C31.5828 84.5945 30.5048 83.28 29.8804 80.6603C29.2308 77.9354 29.1161 74.0164 29.1025 72.0505C29.0969 71.2364 29.0389 70.4237 28.9036 69.6209L28.886 69.5168C28.5495 67.52 29.4086 65.5103 31.0846 64.3739L31.797 63.8908C32.0656 63.7087 32.3473 63.5469 32.64 63.4068L33.4607 63.0138C34.8485 62.3493 36.3852 62.0567 37.9202 62.1647C39.2457 62.2579 40.5753 62.0525 41.811 61.5637L51.534 57.7177L58.9465 54.4085L66.4465 50.6585L72.0715 46.9085L77.0482 43.7937C77.577 43.4628 78.0813 43.0942 78.5571 42.6909L81.8753 39.8783C83.2947 38.6752 84.9558 37.7908 86.7464 37.2849L93.3093 35.4306L99.6597 34.3541C100.579 34.1982 101.513 34.1418 102.444 34.1856L114.963 34.7751L125.017 36.0861L126.255 37.1358C129.371 39.7768 133.546 40.7999 137.53 39.8983L137.894 39.816C141.044 39.1031 144.347 39.5884 147.159 41.1774L154.389 45.2632L160.489 48.8825C161.57 49.5241 162.536 50.3426 163.346 51.3041L163.568 51.5665C165.132 53.4224 165.989 55.7712 165.989 58.1982V59.1512C165.989 59.5047 166.04 59.8564 166.14 60.1955L166.292 60.7122C166.582 61.6942 167.387 62.4385 168.389 62.6508L168.944 62.7684C169.513 62.8891 169.984 63.2877 170.197 63.8295C170.458 64.4924 171.098 64.9282 171.81 64.9282H174.496C176.371 64.1335 177.589 62.2942 177.589 60.2575V59.4141C177.589 58.7248 177.477 58.0401 177.257 57.3869L176.043 53.7847L175.128 49.5179C174.712 47.5811 173.859 45.7647 172.635 44.2077L168.309 38.7081L169.415 39.0205C171.726 39.6735 174.173 39.6735 176.484 39.0205L177.589 38.7081L180.683 37.3971L181.397 37.1954L184.807 36.2318L187.643 35.4306L190.35 34.4474L192.525 33.6572C192.876 33.5295 193.202 33.3403 193.488 33.0984C194.195 32.4988 194.603 31.6184 194.603 30.6911V28.9032C194.603 28.4489 194.647 27.9956 194.735 27.5498L194.771 27.3642C195.163 25.3721 196.22 23.5721 197.769 22.2594L199.243 21.0096L200.644 19.9538C202.43 18.6088 201.478 15.7656 199.243 15.7656L191.359 12.981C190.431 12.6534 189.544 12.2216 188.714 11.6939L183.875 8.61769C181.79 7.29239 179.371 6.58852 176.901 6.58852H166.763L161.86 2.43304C161.53 2.15345 161.112 2 160.679 2H160.527C159.181 2 158.345 3.46299 159.029 4.62201C159.029 5.70808 158.149 6.58852 157.063 6.58852H152.916C152.354 6.58852 151.795 6.66601 151.254 6.81882L146.842 8.06527C145.692 8.39022 144.503 8.55503 143.308 8.55503H141.712C140.376 8.55503 139.047 8.34901 137.774 7.94422L134.47 6.89402C133.83 6.69066 133.175 6.53716 132.512 6.43491L125.986 5.4292C125.331 5.32822 124.669 5.27751 124.006 5.27751H107.988L95.6148 6.58852L86.7973 8.31325C85.9752 8.47406 85.1395 8.55503 84.3018 8.55503H69.321H60.2634C59.6004 8.55503 58.9385 8.60573 58.2833 8.70671L44.1835 10.8797C42.9043 11.0768 41.6616 11.4639 40.4967 12.0281L36.8405 13.799L28.3337 17.7321L22.733 19.8419C21.8295 20.1823 20.9667 20.6223 20.1606 21.1537L16.4866 23.5759C15.1169 24.4788 13.9304 25.6329 12.99 26.9772L12.4724 27.717C11.6323 28.9178 11.0013 30.2519 10.6061 31.663L9.54295 35.4587C9.18313 36.7433 9.02319 38.0757 9.06876 39.409L9.25054 44.7273C9.30193 46.231 9.61397 47.7144 10.1728 49.1113L13.0782 56.375L14.4134 60.3397V59.2797C14.4134 57.4105 14.9934 55.5874 16.0733 54.0618C16.5117 53.4425 17.0263 52.881 17.6051 52.3904L17.6598 52.344C18.5807 51.5635 19.6405 50.9637 20.7838 50.576L22.9202 49.8517C21.9231 49.0065 21.2664 47.8283 21.0721 46.5357L20.7732 44.5472C20.6437 43.6856 20.6194 42.8114 20.7008 41.9439L21.134 37.3272C21.2922 35.6421 21.7779 34.004 22.5639 32.505L23.7538 30.2356C24.2229 29.341 24.8921 28.5667 25.7093 27.973L29.4615 25.2469C29.7074 25.0683 30.0435 25.0809 30.2753 25.2774C30.4994 25.4673 30.5708 25.7826 30.4503 26.0505L29.3131 28.5809C29.0324 29.2055 28.9032 29.8877 28.9362 30.5717L28.9948 31.7896C29.0685 33.3199 29.5138 34.8092 30.2922 36.1288L31.5253 38.2191C31.9716 38.9757 32.2752 39.8078 32.4212 40.674C32.7717 42.7534 32.1904 44.8818 30.8315 46.4943L30.7539 46.5863C29.6866 47.8529 28.2271 48.7271 26.6068 49.0705L22.9202 49.8517L20.7838 50.576C19.6405 50.9637 18.5807 51.5635 17.6598 52.344L17.6051 52.3904C17.0263 52.881 16.5117 53.4425 16.0733 54.0618C14.9934 55.5874 14.4134 57.4105 14.4134 59.2797V60.3397V63.6083C14.4134 64.486 14.5023 65.3614 14.6787 66.2212L17.3923 79.4466C17.4686 79.8186 17.5616 80.1853 17.6567 80.5529C17.938 81.6405 18.4979 84.1202 18.2802 85.9043C18.1579 86.9061 17.8885 88.1835 17.7023 89.0059C17.5767 89.5609 17.3871 90.1 17.2649 90.6557C17.1285 91.2759 17.0632 92.0833 17.5068 92.4594C18.2802 93.1149 18.7599 93.586 19.8268 93.7704C21.047 93.9812 22.9202 93.1149 22.9202 93.1149C22.406 93.5508 21.9026 94.0265 21.6572 94.6543C21.3885 95.3419 21.266 96.3012 22.1469 97.0479C23.0189 97.787 23.891 97.9011 24.4858 97.8599C24.9949 97.8247 25.5033 97.7034 26.0136 97.7034C26.0136 97.7034 25.7435 98.5564 26.0136 99.0144C26.5539 99.9302 27.9564 99.3265 29.107 99.0144Z" fill="#D9D9D9"/>
<path d="M114.963 34.7751L102.444 34.1856C101.513 34.1418 100.579 34.1982 99.6597 34.3541L93.3093 35.4306L86.7463 37.2849C84.9558 37.7908 83.2947 38.6752 81.8753 39.8783L78.5571 42.6909C78.0812 43.0942 77.577 43.4628 77.0483 43.7937L72.0715 46.9085L66.4465 50.6585L58.9465 54.4085L51.534 57.7177L41.811 61.5637C40.5753 62.0525 39.2457 62.2579 37.9202 62.1647V62.1647C36.3852 62.0567 34.8485 62.3494 33.4607 63.0138L32.64 63.4068C32.3473 63.5469 32.0656 63.7087 31.797 63.8908L31.0846 64.3739C29.4086 65.5103 28.5495 67.52 28.886 69.5168V69.5168L28.9036 69.6209C29.0389 70.4237 29.0969 71.2364 29.1025 72.0505C29.1161 74.0164 29.2308 77.9354 29.8803 80.6603C30.5048 83.28 31.5828 84.5945 32.2004 87.2153C32.6773 89.2392 33.1514 90.401 32.9737 92.4594C32.9137 93.1543 32.6974 94.0414 32.5087 94.7173C32.3181 95.4003 32.1689 96.0984 31.9291 96.7657C31.8087 97.1008 31.644 97.451 31.427 97.7034C30.7857 98.4493 30.1441 98.7331 29.107 99.0144C27.9564 99.3265 26.5539 99.9302 26.0136 99.0144C25.7435 98.5564 26.0136 97.7034 26.0136 97.7034M114.963 34.7751L125.017 36.0861M114.963 34.7751L115.761 33.8729C116.768 32.7352 117.568 31.4298 118.124 30.016L119.603 26.2536M125.017 36.0861L126.255 37.1358C129.371 39.7768 133.546 40.7999 137.53 39.8983L137.894 39.816C141.044 39.1031 144.347 39.5884 147.159 41.1774L154.389 45.2632L160.489 48.8825C161.57 49.5241 162.536 50.3426 163.346 51.3041L163.568 51.5665C165.132 53.4224 165.989 55.7712 165.989 58.1982V59.1512C165.989 59.5047 166.04 59.8564 166.14 60.1955L166.292 60.7122C166.582 61.6942 167.387 62.4385 168.389 62.6508L168.944 62.7684C169.513 62.8891 169.984 63.2877 170.197 63.8295V63.8295C170.458 64.4924 171.098 64.9282 171.81 64.9282H174.496M125.017 36.0861L123.605 34.4903C123.019 33.8291 122.696 32.9767 122.696 32.0939V32.0939C122.696 31.283 122.969 30.4956 123.47 29.8582L123.894 29.3196C124.126 29.0244 124.388 28.7532 124.674 28.5103L125.047 28.1941C126.049 27.3451 127.202 26.6926 128.445 26.2709L130.43 25.5981M174.496 64.9282V64.9282C176.371 64.1335 177.589 62.2942 177.589 60.2575V59.4141C177.589 58.7248 177.477 58.0401 177.257 57.3869L176.043 53.7847L175.128 49.5179C174.712 47.5811 173.859 45.7647 172.635 44.2077L168.309 38.7081M174.496 64.9282L176.043 59.6842M168.309 38.7081L169.415 39.0205C171.726 39.6735 174.173 39.6735 176.484 39.0205L177.589 38.7081L180.683 37.3971L181.397 37.1954M168.309 38.7081L164.443 35.4306L160.576 32.8086L158.571 31.1091C157.341 30.0669 156.324 28.7972 155.576 27.3698V27.3698C154.304 24.9446 153.862 22.1696 154.317 19.4694L154.389 19.0431M199.243 15.7656V15.7656C201.478 15.7656 202.43 18.6088 200.644 19.9538L199.243 21.0096L197.769 22.2594C196.22 23.5721 195.163 25.3721 194.771 27.3642L194.735 27.5498C194.647 27.9956 194.603 28.4489 194.603 28.9032V30.6911C194.603 31.6184 194.195 32.4988 193.488 33.0984V33.0984C193.202 33.3403 192.876 33.5295 192.525 33.6572L190.35 34.4474M199.243 15.7656L191.359 12.981C190.431 12.6534 189.544 12.2216 188.714 11.6939L183.875 8.61769C181.79 7.29239 179.371 6.58852 176.901 6.58852H166.763M199.243 15.7656L189.963 17.7321M166.763 6.58852L161.86 2.43304C161.53 2.15345 161.112 2 160.679 2H160.527C159.181 2 158.345 3.46299 159.029 4.62201V4.62201M166.763 6.58852L168.309 11.177M159.029 4.62201V4.62201C159.029 5.70808 158.149 6.58852 157.063 6.58852H152.916C152.354 6.58852 151.795 6.66601 151.254 6.81882L146.842 8.06527C145.692 8.39022 144.503 8.55503 143.308 8.55503H141.712C140.376 8.55503 139.047 8.34901 137.774 7.94422L134.47 6.89402C133.83 6.69066 133.175 6.53716 132.512 6.4349L125.986 5.4292C125.331 5.32822 124.669 5.27751 124.006 5.27751H107.988L95.6148 6.58852L86.7974 8.31325C85.9752 8.47406 85.1395 8.55503 84.3018 8.55503H69.321H60.2634C59.6004 8.55503 58.9385 8.60573 58.2833 8.70671L44.1835 10.8797C42.9043 11.0768 41.6616 11.4639 40.4967 12.0281L36.8405 13.799L28.3337 17.7321L22.733 19.8419C21.8295 20.1823 20.9667 20.6223 20.1606 21.1537L16.4866 23.5759C15.1169 24.4788 13.9304 25.6329 12.99 26.9772L12.4724 27.717C11.6323 28.9178 11.0013 30.2519 10.6061 31.663L9.54295 35.4587C9.18313 36.7433 9.02319 38.0757 9.06876 39.409L9.25054 44.7273C9.30193 46.231 9.61397 47.7144 10.1728 49.1113L13.0782 56.375L14.4134 60.3397M159.029 4.62201V4.62201C160.023 7.1498 160.023 9.96025 159.029 12.488V12.488M14.4134 60.3397V63.6083C14.4134 64.486 14.5023 65.3614 14.6787 66.2212L17.3923 79.4466C17.4686 79.8186 17.5616 80.1853 17.6567 80.5529C17.938 81.6405 18.4979 84.1202 18.2802 85.9043C18.1579 86.9061 17.8885 88.1835 17.7023 89.0059C17.5767 89.5609 17.3871 90.1 17.2649 90.6557C17.1285 91.2759 17.0632 92.0833 17.5068 92.4594C18.2802 93.1149 18.7599 93.586 19.8268 93.7704C21.047 93.9812 22.9202 93.1149 22.9202 93.1149M14.4134 60.3397V59.2797C14.4134 57.4105 14.9934 55.5874 16.0733 54.0618V54.0618C16.5117 53.4425 17.0263 52.881 17.6051 52.3904L17.6598 52.344C18.5807 51.5635 19.6405 50.9637 20.7838 50.576L22.9202 49.8517M22.9202 93.1149L24.4669 91.1483M22.9202 93.1149V93.1149C22.406 93.5507 21.9026 94.0265 21.6572 94.6543C21.3885 95.3419 21.266 96.3012 22.1469 97.0479C23.0189 97.787 23.891 97.9011 24.4858 97.8599C24.9949 97.8247 25.5033 97.7034 26.0136 97.7034V97.7034M26.0136 97.7034L28.3337 95.0814M22.9202 49.8517V49.8517C21.9231 49.0065 21.2664 47.8283 21.0721 46.5357L20.7732 44.5472C20.6437 43.6856 20.6194 42.8114 20.7008 41.9439L21.134 37.3272C21.2922 35.6421 21.7779 34.004 22.5639 32.505L23.7538 30.2356C24.2229 29.341 24.8921 28.5667 25.7093 27.973L29.4615 25.2469C29.7074 25.0683 30.0435 25.0809 30.2753 25.2774V25.2774C30.4994 25.4673 30.5708 25.7826 30.4503 26.0505L29.3131 28.5809C29.0324 29.2055 28.9032 29.8877 28.9362 30.5717L28.9948 31.7896C29.0685 33.3199 29.5138 34.8092 30.2922 36.1288L31.5253 38.2191C31.9716 38.9757 32.2752 39.8078 32.4212 40.674V40.674C32.7717 42.7534 32.1904 44.8818 30.8315 46.4943L30.7539 46.5864C29.6866 47.8529 28.2271 48.7271 26.6068 49.0705L22.9202 49.8517ZM164.443 28.2201L163.684 25.9696C163.163 24.4247 162.357 22.9916 161.306 21.7449L159.732 19.8773C159.264 19.3221 158.751 18.8071 158.197 18.3377L153.616 14.4545M179.91 35.4306L181.397 37.1954M186.096 46.5742V46.1422C186.096 43.8864 185.271 41.7086 183.776 40.0191V40.0191L181.397 37.1954M182.23 34.7751L184.807 36.2318M193.83 43.2967L190.424 39.9286C189.605 39.1186 188.682 38.421 187.679 37.8542L184.807 36.2318M204.657 40.0191L198.239 36.7554C197.365 36.3106 196.443 35.9663 195.491 35.729L190.35 34.4474M183.776 32.8086L190.35 34.4474M165.216 31.4976L162.424 29.1312C161.71 28.5256 160.932 27.9989 160.104 27.5605L156.196 25.49C155.508 25.1258 154.789 24.824 154.048 24.5884L142.789 21.0096M162.123 31.4976L146.656 26.9091M174.496 35.4306L170.629 34.7751M168.309 22.9761V22.9761C169.826 24.6897 170.831 26.7942 171.211 29.0505L171.403 30.1866M186.096 28.2201L182.48 29.2418C181.805 29.4324 181.179 29.7658 180.644 30.2192V30.2192C179.913 30.8393 179.379 31.6605 179.11 32.581L179.043 32.8086M181.397 37.1954L184.807 36.2318M184.807 36.2318L187.643 35.4306L190.35 34.4474" stroke="black" stroke-width="0.5"/>
</svg>
