<svg width="202" height="174" viewBox="0 0 202 174" fill="none" xmlns="http://www.w3.org/2000/svg">
<g clip-path="url(#clip0_38_1479)">
<path d="M43.5732 39.3734C43.5122 39.3215 43.4477 39.2706 43.382 39.2218C40.5618 37.5142 36.9334 38.9575 34.7255 41.0952C32.614 42.9408 31.179 46.4283 33.0437 48.8809C33.3181 49.2321 33.6861 49.502 34.0857 49.6948C37.6337 51.1547 41.7192 48.9443 43.6925 45.8828C45.1076 44.0282 45.4636 40.9798 43.5732 39.3734ZM33.0986 30.435C31.5438 29.1453 28.9969 29.6721 27.4761 30.9289C24.4323 33.3923 22.5898 38.1445 24.7829 41.6758C25.0096 41.9822 25.2943 42.2416 25.6163 42.4445C27.938 43.8689 30.797 42.322 32.3282 40.3955C34.3987 37.8986 35.608 33.978 33.6975 31.1018C33.5217 30.8402 33.3207 30.6192 33.0986 30.435ZM42.906 53.5257C40.1343 51.3886 36.0124 52.4706 33.5917 54.7265C31.6829 56.2115 30.5392 59.4269 32.4332 61.3303C35.2785 63.7503 39.8513 62.3839 42.2136 59.8366C43.9012 58.2612 44.7254 55.2809 42.906 53.5257ZM19.3477 34.0156C18.2361 33.0289 16.5427 32.7465 15.1725 33.5785C11.5097 35.8066 10.0685 41.4176 12.73 44.8786C13.8732 46.2858 15.968 46.2722 17.3991 45.3054C20.4533 43.2319 21.7251 38.8404 20.3312 35.4741C20.1289 34.8973 19.7827 34.4017 19.3477 34.0156ZM26.3336 49.8329C24.1336 47.9223 20.9205 47.1038 18.0357 47.5409C14.7948 48.1564 11.5525 49.3341 8.90843 51.372C6.76147 52.6264 6.33396 55.8523 8.20068 57.5022C10.404 59.5357 13.7132 59.6605 16.0608 61.503C18.2225 62.8713 19.0546 65.3618 20.1956 67.512C21.104 69.4151 23.3305 70.9314 25.4597 69.9936C27.4566 68.8866 28.0992 66.4094 28.6381 64.3496C29.2155 60.7468 29.7927 56.9344 28.6742 53.3949C28.2401 51.9598 27.408 50.7659 26.3336 49.8329Z" fill="#FFD0E9"/>
</g>
<g clip-path="url(#clip1_38_1479)">
<path d="M109.176 88.8197C109.149 88.7441 109.12 88.6675 109.088 88.5922C107.524 85.6898 103.665 85.0925 100.678 85.8144C97.922 86.3334 94.9159 88.6107 95.2783 91.6702C95.3366 92.1121 95.5168 92.5314 95.7633 92.9002C98.08 95.9584 102.722 96.1265 105.976 94.4897C108.136 93.6095 109.99 91.1633 109.176 88.8197ZM104.685 75.8028C103.999 73.9026 101.537 73.0642 99.589 73.3756C95.7163 73.954 91.7174 77.1143 91.8156 81.27C91.8555 81.6491 91.9691 82.017 92.1437 82.3552C93.4216 84.7607 96.6702 84.8783 98.967 83.9951C102.018 82.894 105.049 80.129 104.862 76.6812C104.844 76.3666 104.783 76.0742 104.685 75.8028ZM101.42 100.677C100.116 97.4288 96.0152 96.2698 92.7846 96.9855C90.3863 97.2967 87.7693 99.4871 88.4357 102.088C89.6597 105.617 94.2935 106.76 97.6216 105.764C99.8751 105.262 102.097 103.112 101.42 100.677ZM91.0185 71.9114C90.5613 70.4971 89.2454 69.3945 87.6424 69.4163C83.3556 69.4779 79.2668 73.5818 79.8043 77.9145C80.0753 79.7072 81.8875 80.7584 83.6111 80.6514C87.2951 80.4142 90.6192 77.2752 91.126 73.6672C91.2443 73.0675 91.1974 72.4648 91.0185 71.9114ZM89.0131 89.086C88.0867 86.3234 85.7332 83.9878 83.0255 82.9008C79.9204 81.7868 76.5289 81.1566 73.2165 81.5711C70.7299 81.5628 68.7248 84.1257 69.4963 86.4945C70.3632 89.3648 73.1515 91.1513 74.2396 93.9302C75.4081 96.2061 74.8616 98.7744 74.7538 101.206C74.571 103.307 75.7203 105.743 78.0309 106.016C80.3134 106.075 82.124 104.266 83.6335 102.765C85.959 99.9529 88.3907 96.9606 89.2227 93.343C89.5769 91.8861 89.4655 90.4352 89.0131 89.086Z" fill="#FFD0E9"/>
</g>
<g clip-path="url(#clip2_38_1479)">
<path d="M126.33 1.76941C126.251 1.7818 126.171 1.79739 126.091 1.81537C122.956 2.838 121.682 6.5292 121.861 9.5972C121.882 12.4015 123.588 15.7647 126.663 15.9523C127.109 15.9735 127.553 15.8707 127.96 15.6938C131.381 13.958 132.373 9.41985 131.341 5.92683C130.859 3.64433 128.781 1.38524 126.33 1.76941ZM112.722 3.87345C110.73 4.21004 109.467 6.48362 109.427 8.45618C109.308 12.37 111.706 16.8673 115.813 17.5099C116.193 17.538 116.575 17.4917 116.939 17.38C119.534 16.5503 120.227 13.3745 119.767 10.9572C119.226 7.75881 117.044 4.28406 113.618 3.8548C113.305 3.81726 113.007 3.82537 112.722 3.87345ZM136.619 11.5103C133.191 12.2159 131.321 16.0452 131.45 19.3516C131.33 21.767 133.02 24.7319 135.698 24.5388C139.389 23.962 141.337 19.6054 140.949 16.1532C140.856 13.8464 139.136 11.277 136.619 11.5103ZM106.462 16.6296C104.989 16.828 103.67 17.9268 103.406 19.5081C102.704 23.7374 106.015 28.491 110.375 28.7328C112.187 28.7849 113.544 27.1887 113.745 25.4735C114.167 21.8061 111.669 17.9766 108.209 16.8361C107.64 16.613 107.038 16.552 106.462 16.6296ZM123.006 21.6579C120.123 22.0782 117.406 23.9787 115.854 26.4499C114.206 29.3072 112.982 32.5326 112.801 35.8659C112.351 38.3114 114.516 40.7404 116.984 40.4025C119.963 40.06 122.217 37.634 125.145 37.0575C127.593 36.3124 130.023 37.3071 132.397 37.8456C134.431 38.3992 137.033 37.7016 137.712 35.4763C138.176 33.2407 136.719 31.1373 135.51 29.3847C133.156 26.5962 130.644 23.671 127.232 22.2088C125.862 21.6012 124.414 21.4526 123.006 21.6579Z" fill="#FFD0E9"/>
</g>
<g clip-path="url(#clip3_38_1479)">
<path d="M24.3035 133.646C24.2339 133.686 24.1638 133.729 24.0955 133.774C21.5225 135.835 21.6306 139.739 22.8792 142.547C23.8865 145.164 26.6683 147.71 29.6124 146.802C30.0365 146.665 30.4165 146.413 30.7348 146.104C33.3253 143.274 32.6539 138.677 30.4573 135.772C29.2021 133.806 26.4619 132.423 24.3035 133.646ZM12.3093 140.41C10.5638 141.427 10.183 144 10.8405 145.86C12.1075 149.565 15.9368 152.929 20.0068 152.083C20.3724 151.976 20.7139 151.797 21.0151 151.565C23.1507 149.874 22.6809 146.658 21.3981 144.558C19.7651 141.755 16.499 139.272 13.1413 140.077C12.8352 140.152 12.5587 140.265 12.3093 140.41ZM37.3642 139.138C34.4046 141.006 34.0038 145.248 35.2902 148.297C36.0286 150.6 38.6549 152.779 41.0934 151.655C44.3439 149.815 44.6326 145.051 43.0525 141.957C42.1532 139.831 39.6378 138.032 37.3642 139.138ZM10.9451 154.554C9.63642 155.259 8.78914 156.752 9.09951 158.325C9.9328 162.53 14.7065 165.812 18.8714 164.503C20.5859 163.913 21.2932 161.941 20.8772 160.265C19.9799 156.684 16.2931 153.98 12.6528 154.132C12.0416 154.124 11.4572 154.278 10.9451 154.554ZM28.1999 153.431C25.6495 154.84 23.7764 157.576 23.1953 160.435C22.6593 163.69 22.6507 167.14 23.6556 170.323C24.0956 172.771 26.978 174.281 29.169 173.095C31.836 171.725 33.0906 168.66 35.6278 167.089C37.6558 165.529 40.2805 165.604 42.6919 165.272C44.7913 165.073 46.9805 163.503 46.8318 161.181C46.4786 158.926 44.3732 157.471 42.6242 156.257C39.4394 154.476 36.0577 152.624 32.3494 152.457C30.8525 152.372 29.4454 152.743 28.1999 153.431Z" fill="#FFD0E9"/>
</g>
<g clip-path="url(#clip4_38_1479)">
<path d="M157.093 80.8745C157.146 80.9351 157.201 80.9955 157.259 81.0539C159.779 83.1794 163.588 82.3182 166.101 80.5499C168.474 79.0553 170.434 75.8334 168.974 73.1206C168.757 72.731 168.436 72.4071 168.071 72.1546C164.793 70.1605 160.414 71.7085 157.988 74.4257C156.302 76.0376 155.476 78.9935 157.093 80.8745ZM166.05 91.3334C167.385 92.8493 169.983 92.7251 171.681 91.7202C175.071 89.7603 177.63 85.3525 176.013 81.523C175.837 81.1852 175.596 80.8846 175.31 80.6341C173.238 78.8659 170.173 79.9492 168.361 81.614C165.927 83.7584 164.122 87.4432 165.562 90.5816C165.695 90.8674 165.859 91.1169 166.05 91.3334ZM159.954 66.9982C162.36 69.5404 166.6 69.1128 169.342 67.2609C171.458 66.0909 173.088 63.0926 171.513 60.9177C169.079 58.0846 164.349 58.723 161.62 60.8718C159.708 62.1656 158.43 64.9813 159.954 66.9982ZM180.191 89.9355C181.135 91.0831 182.764 91.6255 184.247 91.0167C188.212 89.3856 190.508 84.0671 188.418 80.2342C187.507 78.6663 185.436 78.3539 183.872 79.0862C180.532 80.6594 178.593 84.7997 179.446 88.3418C179.556 88.943 179.821 89.4864 180.191 89.9355ZM175.75 73.224C177.626 75.4535 180.673 76.7619 183.591 76.7789C186.888 76.6751 190.274 76.0161 193.203 74.4143C195.519 73.5091 196.443 70.389 194.855 68.4688C192.995 66.1173 189.746 65.4793 187.713 63.294C185.791 61.6061 185.356 59.0165 184.564 56.715C183.962 54.6937 181.999 52.8495 179.75 53.4447C177.605 54.2276 176.585 56.5747 175.732 58.5256C174.601 61.9947 173.438 65.6709 173.992 69.3413C174.198 70.8265 174.834 72.1352 175.75 73.224Z" fill="#FFD0E9"/>
</g>
<g clip-path="url(#clip5_38_1479)">
<path d="M142.844 133.543C142.783 133.595 142.722 133.65 142.663 133.706C140.506 136.2 141.32 140.019 143.057 142.555C144.523 144.946 147.72 146.945 150.451 145.519C150.843 145.307 151.171 144.989 151.428 144.628C153.462 141.375 151.968 136.977 149.281 134.518C147.69 132.812 144.745 131.949 142.844 133.543ZM132.275 142.37C130.743 143.687 130.835 146.286 131.819 147.996C133.737 151.41 138.113 154.023 141.962 152.454C142.302 152.282 142.606 152.044 142.86 151.761C144.653 149.711 143.608 146.633 141.966 144.801C139.851 142.341 136.189 140.491 133.033 141.892C132.746 142.021 132.494 142.182 132.275 142.37ZM156.684 136.575C154.112 138.949 154.487 143.194 156.305 145.959C157.449 148.09 160.427 149.756 162.621 148.208C165.484 145.809 164.904 141.072 162.789 138.316C161.519 136.388 158.719 135.076 156.684 136.575ZM133.499 156.527C132.34 157.457 131.777 159.079 132.368 160.57C133.95 164.554 139.239 166.916 143.098 164.873C144.677 163.982 145.015 161.915 144.302 160.342C142.77 156.983 138.654 154.993 135.102 155.802C134.499 155.905 133.952 156.163 133.499 156.527ZM150.264 152.293C148.011 154.142 146.665 157.172 146.612 160.089C146.676 163.387 147.293 166.781 148.858 169.73C149.735 172.057 152.843 173.019 154.783 171.456C157.157 169.625 157.835 166.383 160.045 164.378C161.757 162.476 164.352 162.074 166.663 161.31C168.691 160.733 170.56 158.793 169.992 156.536C169.236 154.382 166.902 153.333 164.961 152.456C161.506 151.283 157.845 150.074 154.168 150.583C152.68 150.77 151.364 151.39 150.264 152.293Z" fill="#FFD0E9"/>
</g>
<defs>
<clipPath id="clip0_38_1479">
<rect width="38" height="37" fill="white" transform="translate(24.3206 22.5813) rotate(41.0955)"/>
</clipPath>
<clipPath id="clip1_38_1479">
<rect width="38" height="37" fill="white" transform="translate(101.105 64.5813) rotate(71.5848)"/>
</clipPath>
<clipPath id="clip2_38_1479">
<rect width="38" height="37" fill="white" transform="translate(101.043 5.39978) rotate(-8.16937)"/>
</clipPath>
<clipPath id="clip3_38_1479">
<rect width="38" height="37" fill="white" transform="translate(1.91675 145.954) rotate(-28.8001)"/>
</clipPath>
<clipPath id="clip4_38_1479">
<rect width="38" height="37" fill="white" transform="translate(173.5 100.457) rotate(-129.955)"/>
</clipPath>
<clipPath id="clip5_38_1479">
<rect width="38" height="37" fill="white" transform="translate(123.061 149.707) rotate(-39.2485)"/>
</clipPath>
</defs>
</svg>
